# 20mm cube with a checkerboard texture. Companion files: cube.mtl + cube-texture.png.
mtllib cube.mtl
o textured-cube
v -10.0000 -10.0000 10.0000
v 10.0000 -10.0000 10.0000
v 10.0000 10.0000 10.0000
v -10.0000 10.0000 10.0000
v 10.0000 -10.0000 -10.0000
v -10.0000 -10.0000 -10.0000
v -10.0000 10.0000 -10.0000
v 10.0000 10.0000 -10.0000
v 10.0000 -10.0000 10.0000
v 10.0000 -10.0000 -10.0000
v 10.0000 10.0000 -10.0000
v 10.0000 10.0000 10.0000
v -10.0000 -10.0000 -10.0000
v -10.0000 -10.0000 10.0000
v -10.0000 10.0000 10.0000
v -10.0000 10.0000 -10.0000
v -10.0000 10.0000 10.0000
v 10.0000 10.0000 10.0000
v 10.0000 10.0000 -10.0000
v -10.0000 10.0000 -10.0000
v -10.0000 -10.0000 -10.0000
v 10.0000 -10.0000 -10.0000
v 10.0000 -10.0000 10.0000
v -10.0000 -10.0000 10.0000
vt 0.0000 0.0000
vt 1.0000 0.0000
vt 1.0000 1.0000
vt 0.0000 1.0000
vt 0.0000 0.0000
vt 1.0000 0.0000
vt 1.0000 1.0000
vt 0.0000 1.0000
vt 0.0000 0.0000
vt 1.0000 0.0000
vt 1.0000 1.0000
vt 0.0000 1.0000
vt 0.0000 0.0000
vt 1.0000 0.0000
vt 1.0000 1.0000
vt 0.0000 1.0000
vt 0.0000 0.0000
vt 1.0000 0.0000
vt 1.0000 1.0000
vt 0.0000 1.0000
vt 0.0000 0.0000
vt 1.0000 0.0000
vt 1.0000 1.0000
vt 0.0000 1.0000
vn 0.0000 0.0000 1.0000
vn 0.0000 0.0000 1.0000
vn 0.0000 0.0000 1.0000
vn 0.0000 0.0000 1.0000
vn 0.0000 0.0000 -1.0000
vn 0.0000 0.0000 -1.0000
vn 0.0000 0.0000 -1.0000
vn 0.0000 0.0000 -1.0000
vn 1.0000 0.0000 0.0000
vn 1.0000 0.0000 0.0000
vn 1.0000 0.0000 0.0000
vn 1.0000 0.0000 0.0000
vn -1.0000 0.0000 0.0000
vn -1.0000 0.0000 0.0000
vn -1.0000 0.0000 0.0000
vn -1.0000 0.0000 0.0000
vn 0.0000 1.0000 0.0000
vn 0.0000 1.0000 0.0000
vn 0.0000 1.0000 0.0000
vn 0.0000 1.0000 0.0000
vn 0.0000 -1.0000 0.0000
vn 0.0000 -1.0000 0.0000
vn 0.0000 -1.0000 0.0000
vn 0.0000 -1.0000 0.0000
usemtl checker
f 1/1/1 2/2/2 3/3/3 4/4/4
f 5/5/5 6/6/6 7/7/7 8/8/8
f 9/9/9 10/10/10 11/11/11 12/12/12
f 13/13/13 14/14/14 15/15/15 16/16/16
f 17/17/17 18/18/18 19/19/19 20/20/20
f 21/21/21 22/22/22 23/23/23 24/24/24
